<svg width="250" height="45" viewBox="0 0 250 45" fill="none" xmlns="http://www.w3.org/2000/svg">
    <path fill="#000" d="M0 0h250v45H0z"/>
    <path fill-rule="evenodd" clip-rule="evenodd" d="M46.739 22.362h-7.836v3.755c-.023.805.007 1.61.09 2.41.016.163.063.32.14.464.075.143.178.27.301.371.424.222.9.315 1.372.268h.388v.54h-6.74v-.54h.377c.457.035.916-.05 1.333-.248.124-.09.23-.205.311-.337.081-.133.137-.28.163-.435.092-.827.127-1.66.103-2.493V18.49a16.906 16.906 0 0 0-.103-2.407 1.015 1.015 0 0 0-.138-.418.974.974 0 0 0-.3-.314 3.387 3.387 0 0 0-1.475-.194h-.272v-.54h6.74v.54h-.278a3.59 3.59 0 0 0-1.445.18c-.12.079-.223.182-.302.303-.08.122-.133.26-.157.404-.095.812-.13 1.63-.108 2.446v3.078h7.836v-3.078a20.674 20.674 0 0 0-.105-2.407.973.973 0 0 0-.14-.423.93.93 0 0 0-.31-.31 3.234 3.234 0 0 0-1.462-.193h-.386v-.54h6.8v.54h-.215a3.42 3.42 0 0 0-1.434.18.99.99 0 0 0-.316.299 1.033 1.033 0 0 0-.162.408c-.1.811-.135 1.63-.107 2.446v7.628c0 1.23.031 2.029.076 2.41.018.165.068.325.148.468.08.144.187.269.316.367a2.38 2.38 0 0 0 1.37.268h.327v.54h-6.803v-.54h.51c.454.035.91-.05 1.323-.248.246-.185.413-.462.464-.772.082-.828.117-1.66.104-2.493l.002-3.755zM55.1 22.297a7.623 7.623 0 0 1 .544-3.157 7.388 7.388 0 0 1 1.783-2.62 8.116 8.116 0 0 1 5.796-2.191 8.307 8.307 0 0 1 5.854 2.157 7.44 7.44 0 0 1 1.815 2.663 7.678 7.678 0 0 1 .542 3.213 8.01 8.01 0 0 1-.528 3.176 7.779 7.779 0 0 1-1.728 2.679 8.933 8.933 0 0 1-5.888 2.234 8.932 8.932 0 0 1-5.889-2.234 7.805 7.805 0 0 1-1.762-2.704 8.041 8.041 0 0 1-.539-3.216zm2.53.065c0 2.508.483 4.396 1.44 5.633.985 1.252 2.409 1.862 4.35 1.862.76.033 1.518-.12 2.213-.442a4.942 4.942 0 0 0 1.79-1.42c.986-1.237 1.468-3.126 1.468-5.619 0-2.4-.485-4.255-1.454-5.532a5.026 5.026 0 0 0-1.868-1.507 4.841 4.841 0 0 0-2.329-.447 4.9 4.9 0 0 0-2.304.434c-.725.33-1.365.83-1.869 1.463-.954 1.27-1.437 3.111-1.437 5.575zM79.816 22.832v3.285c-.014.805.014 1.61.085 2.41.017.166.067.326.148.47.08.144.19.268.32.365.424.222.9.314 1.373.268h.489v.54h-6.872v-.54h.392c.455.039.911-.047 1.323-.249.13-.085.24-.198.325-.331.084-.133.14-.283.164-.44.097-.827.133-1.66.108-2.493V18.49c.024-.804-.012-1.609-.108-2.407a1.032 1.032 0 0 0-.141-.418.992.992 0 0 0-.3-.314 3.47 3.47 0 0 0-1.494-.194h-.269v-.54l1.878-.079c1.507-.042 2.674-.075 3.508-.075a13.496 13.496 0 0 1 3.587.372c.8.229 1.514.7 2.055 1.35.542.681.828 1.543.804 2.425a4.342 4.342 0 0 1-.556 2.25 3.509 3.509 0 0 1-1.573 1.481c-.676.349-1.873.491-3.586.491l-1.66.001zm0-.549h1.087c.701.015 1.4-.076 2.077-.27a2.424 2.424 0 0 0 1.32-1.138c.386-.631.578-1.37.548-2.118a3.896 3.896 0 0 0-.176-1.51 3.8 3.8 0 0 0-.737-1.314c-.618-.596-1.598-.911-2.956-.911-.521 0-.885.027-1.165.05l.002 7.211zM95.042 22.832v3.285c-.019.805.01 1.61.089 2.41.019.165.07.323.15.467.08.143.186.269.314.368.425.222.901.315 1.375.268h.506v.54h-6.894v-.54h.406c.451.038.904-.047 1.313-.249.13-.084.24-.197.324-.33.083-.133.138-.284.16-.441.083-.828.115-1.66.094-2.493V18.49a18.66 18.66 0 0 0-.094-2.407.996.996 0 0 0-.139-.42.955.955 0 0 0-.304-.312 3.353 3.353 0 0 0-1.47-.194h-.29v-.54l1.88-.079c1.516-.042 2.69-.075 3.52-.075 1.202-.038 2.402.087 3.572.372a4.307 4.307 0 0 1 2.061 1.35 3.66 3.66 0 0 1 .804 2.425 4.348 4.348 0 0 1-.551 2.25 3.642 3.642 0 0 1-1.57 1.481c-.678.349-1.875.491-3.61.491l-1.646.001zm0-.549h1.081a7.173 7.173 0 0 0 2.104-.27 2.506 2.506 0 0 0 1.308-1.138 3.813 3.813 0 0 0 .542-2.118c0-1.287-.297-2.236-.92-2.824-.603-.596-1.592-.911-2.95-.911-.5 0-.884.027-1.165.05v7.211zM117.995 25.329h.541l-.309 4.84h-12.43v-.542h.314c.494.066.995-.04 1.424-.3a1.43 1.43 0 0 0 .431-.795c.082-.803.11-1.612.084-2.42V18.49a16.527 16.527 0 0 0-.091-2.343 1.146 1.146 0 0 0-.435-.79c-.45-.181-.933-.25-1.413-.203v-.54h10.711l.338 3.872h-.494a6.196 6.196 0 0 0-.886-2.303 1.989 1.989 0 0 0-1.207-.85 9.95 9.95 0 0 0-2.286-.18h-2.077v6.518h1.586a3.985 3.985 0 0 0 1.538-.202.913.913 0 0 0 .561-.589c.135-.5.19-1.021.163-1.54h.515v5.305h-.515a4.57 4.57 0 0 0-.222-1.72.95.95 0 0 0-.247-.36.904.904 0 0 0-.378-.207 5.022 5.022 0 0 0-1.342-.135h-1.659v3.665c0 1.836.111 2.92.334 3.255.24.324.844.48 1.855.48h1.121a5.252 5.252 0 0 0 1.945-.3 3.571 3.571 0 0 0 1.449-1.299 7.465 7.465 0 0 0 1.081-2.694zM138.178 30.17h-4.024c-.701-.542-1.804-1.883-3.278-4.087a36.68 36.68 0 0 0-1.468-2.026c-.321-.42-.673-.815-1.052-1.18a1.507 1.507 0 0 0-.902-.203h-.607v3.44c0 1.23.036 2.03.079 2.411.039.328.199.627.446.835a2.5 2.5 0 0 0 1.382.267h.73v.541h-7.187v-.54h.49c.448.04.899-.045 1.303-.249.132-.083.245-.195.331-.328a1.11 1.11 0 0 0 .164-.444c.091-.827.125-1.66.101-2.492v-7.626a17.13 17.13 0 0 0-.101-2.407.988.988 0 0 0-.138-.42.951.951 0 0 0-.305-.312 3.367 3.367 0 0 0-1.486-.194h-.243v-.54l2.151-.12c1.422-.072 2.558-.11 3.391-.11a12.177 12.177 0 0 1 3.477.42c.841.227 1.601.7 2.189 1.363.55.606.849 1.41.836 2.241a3.62 3.62 0 0 1-.284 1.421c-.19.448-.469.85-.818 1.179-.888.792-2 1.266-3.169 1.35.627.314 1.639 1.432 3.014 3.38a14.748 14.748 0 0 0 2.681 3.108c.668.5 1.468.772 2.292.781l.005.54zm-11.331-8.044c.546-.015 1.133-.023 1.717-.06a5.987 5.987 0 0 0 1.527-.256c.394-.111.758-.313 1.065-.592.284-.295.502-.65.638-1.042.167-.51.246-1.047.235-1.586a4.14 4.14 0 0 0-.797-2.634c-.509-.645-1.673-.98-3.443-.98-.264 0-.58.011-.942.043v7.107zM140.898 29.988v-4.991h.549c.638 3.265 2.106 4.881 4.463 4.881.448.03.896-.037 1.316-.197a3.2 3.2 0 0 0 1.127-.732c.275-.27.494-.594.646-.953a3.04 3.04 0 0 0 .242-1.137 2.763 2.763 0 0 0-.195-1.065 2.68 2.68 0 0 0-.588-.896 9.484 9.484 0 0 0-2.786-1.67 19.335 19.335 0 0 1-2.716-1.396 4.507 4.507 0 0 1-1.439-1.58 4.272 4.272 0 0 1-.496-2.05 3.84 3.84 0 0 1 .265-1.5c.188-.477.469-.907.825-1.264a3.89 3.89 0 0 1 2.836-1.108c.608.002 1.211.11 1.785.317a4.62 4.62 0 0 1 1.717 1.335 2.45 2.45 0 0 0 .576-1.364h.494v4.076h-.494a5.39 5.39 0 0 0-1.499-2.807 3.43 3.43 0 0 0-2.466-1.022 2.39 2.39 0 0 0-1.063.152c-.34.131-.648.338-.902.605a2.528 2.528 0 0 0-.612 1.643c-.005.347.062.69.199 1.008.137.316.339.598.592.825a10.787 10.787 0 0 0 2.788 1.69c.971.415 1.913.902 2.816 1.458a3.903 3.903 0 0 1 1.406 1.478c.361.686.545 1.456.533 2.238a4.452 4.452 0 0 1-.306 1.759 4.321 4.321 0 0 1-.969 1.478 4.708 4.708 0 0 1-3.443 1.256 5.041 5.041 0 0 1-2.27-.498 5.216 5.216 0 0 1-1.834-1.473 4.27 4.27 0 0 0-.549 1.508l-.548-.004zM182.91 18.358h-.504l.069-3.742h14.567l.073 3.742h-.475a5.73 5.73 0 0 0-.696-2.21 1.748 1.748 0 0 0-.956-.852 6.82 6.82 0 0 0-1.739-.14h-2.398v10.96a19.78 19.78 0 0 0 .073 2.385 1.267 1.267 0 0 0 .453.86c.425.22.9.312 1.373.267h.735v.541h-7.501v-.54h.797a2.63 2.63 0 0 0 1.333-.249c.244-.187.413-.462.472-.771.088-.828.122-1.66.102-2.493v-10.96h-2.219a8.361 8.361 0 0 0-1.959.133 1.754 1.754 0 0 0-.928.86 6.546 6.546 0 0 0-.672 2.209zM200.245 22.297a7.646 7.646 0 0 1 .54-3.154 7.413 7.413 0 0 1 1.775-2.622 8.125 8.125 0 0 1 5.796-2.192 8.252 8.252 0 0 1 5.839 2.157 7.407 7.407 0 0 1 1.823 2.66 7.636 7.636 0 0 1 .543 3.216 7.964 7.964 0 0 1-.525 3.177 7.733 7.733 0 0 1-1.732 2.678 8.052 8.052 0 0 1-5.912 2.234 8.136 8.136 0 0 1-5.873-2.234 7.843 7.843 0 0 1-1.745-2.71 8.074 8.074 0 0 1-.529-3.21zm2.531.065c0 2.508.48 4.396 1.436 5.633.971 1.252 2.403 1.862 4.331 1.862a4.753 4.753 0 0 0 2.22-.438 4.93 4.93 0 0 0 1.795-1.425c.974-1.236 1.462-3.125 1.462-5.618 0-2.4-.473-4.255-1.445-5.532a5.005 5.005 0 0 0-1.87-1.51 4.825 4.825 0 0 0-2.333-.444 4.877 4.877 0 0 0-2.299.434c-.722.33-1.36.83-1.861 1.463-.956 1.27-1.436 3.111-1.436 5.575zM225.412 22.832v3.285c0 1.23.034 2.029.07 2.41.014.166.063.326.142.47.079.144.188.269.318.365.423.22.896.313 1.367.268h.503v.54h-6.863v-.54h.401c.456.036.913-.05 1.328-.248a1.147 1.147 0 0 0 .466-.772c.095-.827.13-1.66.105-2.493V18.49a16.407 16.407 0 0 0-.105-2.407.998.998 0 0 0-.136-.42.96.96 0 0 0-.302-.312 3.395 3.395 0 0 0-1.477-.194h-.28v-.54l1.88-.079c1.507-.042 2.667-.075 3.527-.075 1.2-.035 2.4.09 3.569.372.798.23 1.513.7 2.055 1.35a3.69 3.69 0 0 1 .803 2.425 4.487 4.487 0 0 1-.553 2.25 3.546 3.546 0 0 1-1.576 1.481c-.673.349-1.872.491-3.593.491l-1.649.001zm0-.549h1.09a6.994 6.994 0 0 0 2.071-.27 2.527 2.527 0 0 0 1.333-1.138c.366-.64.552-1.374.537-2.118a3.851 3.851 0 0 0-.177-1.512 3.762 3.762 0 0 0-.745-1.312c-.614-.596-1.596-.911-2.961-.911-.501 0-.883.027-1.147.05l-.001 7.211zM17.219 29.956v-6.69h.652c.847 4.357 2.816 6.516 5.954 6.516a4.343 4.343 0 0 0 1.766-.24 4.457 4.457 0 0 0 1.537-.932c.384-.359.689-.798.895-1.289.206-.49.309-1.021.3-1.557a4.4 4.4 0 0 0-.92-2.948 12.588 12.588 0 0 0-3.777-2.245 28.874 28.874 0 0 1-3.63-1.793 6.048 6.048 0 0 1-2.108-1.979 5.73 5.73 0 0 1-.597-2.588 5.097 5.097 0 0 1 .358-1.998 4.95 4.95 0 0 1 1.103-1.68 5.194 5.194 0 0 1 1.74-1.13 5.05 5.05 0 0 1 2.024-.346 6.661 6.661 0 0 1 2.404.42c.888.39 1.671.998 2.283 1.77.433-.509.702-1.146.768-1.822h.553v5.426h-.553a7.39 7.39 0 0 0-1.926-3.779 4.686 4.686 0 0 0-3.336-1.367 3.51 3.51 0 0 0-1.49.214 3.61 3.61 0 0 0-1.278.822 3.655 3.655 0 0 0-.831 2.271c.003.498.102.99.293 1.448.19.458.467.87.814 1.215 1.13.958 2.395 1.73 3.75 2.293a36.41 36.41 0 0 1 3.786 1.917 5.179 5.179 0 0 1 1.948 1.923c.464.833.692 1.785.658 2.746a5.85 5.85 0 0 1-.401 2.35 5.68 5.68 0 0 1-1.299 1.97 6.29 6.29 0 0 1-4.59 1.654 6.773 6.773 0 0 1-3.021-.652 7.018 7.018 0 0 1-2.456-1.94 5.135 5.135 0 0 0-.72 2.02h-.653zM165.848 29.956v-6.69h.642c.83 4.357 2.802 6.516 5.933 6.516a4.408 4.408 0 0 0 1.775-.241 4.524 4.524 0 0 0 1.549-.931c.383-.36.688-.799.894-1.29.207-.49.31-1.02.304-1.556a4.371 4.371 0 0 0-.94-2.948 12.524 12.524 0 0 0-3.782-2.245 30.36 30.36 0 0 1-3.634-1.79 6.035 6.035 0 0 1-2.091-1.979 5.486 5.486 0 0 1-.615-2.588 5.067 5.067 0 0 1 .364-2.001 4.924 4.924 0 0 1 1.116-1.677c.5-.491 1.09-.874 1.734-1.128a5.045 5.045 0 0 1 2.019-.348 6.533 6.533 0 0 1 2.391.42 5.959 5.959 0 0 1 2.303 1.77 3.406 3.406 0 0 0 .779-1.822h.554v5.426h-.554a7.477 7.477 0 0 0-1.94-3.779 4.71 4.71 0 0 0-3.339-1.367 3.45 3.45 0 0 0-1.485.21c-.474.18-.907.46-1.269.826a3.527 3.527 0 0 0-.833 2.271c.002.497.1.99.288 1.447.188.457.462.87.807 1.216a14.325 14.325 0 0 0 3.731 2.293c1.302.558 2.57 1.199 3.797 1.917a5.036 5.036 0 0 1 1.954 1.923 5.11 5.11 0 0 1 .669 2.746 5.857 5.857 0 0 1-.406 2.351 5.678 5.678 0 0 1-1.305 1.97 6.288 6.288 0 0 1-4.571 1.653 6.764 6.764 0 0 1-3.028-.649 7.013 7.013 0 0 1-2.46-1.942 4.886 4.886 0 0 0-.709 2.019l-.642-.003z" fill="#fff" stroke="#fff" stroke-width=".061"/>
</svg>
