<svg width="50" height="50" viewBox="0 0 50 50" fill="none" xmlns="http://www.w3.org/2000/svg"><path d="M31.1513 14.1327C30.6077 13.825 29.9176 14.0162 29.61 14.5598L18.4215 34.326C18.1138 34.8695 18.305 35.5597 18.8486 35.8673C19.0247 35.9669 19.2159 36.0143 19.4047 36.0143C19.799 36.0143 20.1819 35.8078 20.39 35.4402L31.5785 15.674C31.8862 15.1305 31.6949 14.4404 31.1513 14.1327Z" fill="black"/><path d="M22.1253 23.3425C22.8044 22.1648 22.9842 20.7931 22.6316 19.4803C22.2791 18.1674 21.4364 17.0702 20.2587 16.3912C19.0811 15.712 17.7097 15.5323 16.3965 15.8847C15.0835 16.2373 13.9865 17.08 13.3074 18.2577C12.6284 19.4354 12.4486 20.807 12.8011 22.12C13.1536 23.4329 13.9964 24.5299 15.1741 25.2091C15.9578 25.6609 16.8272 25.8917 17.7081 25.8916C18.1511 25.8916 18.5971 25.8333 19.0363 25.7153C20.3492 25.3629 21.4463 24.5202 22.1253 23.3425ZM16.3039 23.2495C15.6496 22.8722 15.1814 22.2627 14.9855 21.5334C14.7896 20.804 14.8895 20.0418 15.2668 19.3876C15.6439 18.7334 16.2536 18.2651 16.9829 18.0694C17.227 18.0038 17.4747 17.9713 17.7208 17.9713C18.2102 17.9713 18.6932 18.0997 19.1285 18.3506C19.7828 18.7279 20.251 19.3374 20.4469 20.0669C20.6428 20.7963 20.5429 21.5584 20.1656 22.2125C19.7885 22.8668 19.179 23.335 18.4495 23.5308C17.7201 23.7268 16.9582 23.6267 16.3039 23.2495Z" fill="black"/><path d="M34.826 24.7908C33.6483 24.1118 32.2767 23.932 30.9638 24.2845C29.6508 24.637 28.5537 25.4797 27.8747 26.6574C27.1957 27.8351 27.0158 29.2068 27.3684 30.5197C27.7209 31.8326 28.5637 32.9297 29.7413 33.6088C30.5249 34.0606 31.3943 34.2915 32.2753 34.2914C32.7183 34.2914 33.1641 34.233 33.6035 34.115C34.9165 33.7625 36.0135 32.9198 36.6926 31.7421C37.3716 30.5644 37.5514 29.1927 37.1989 27.8799C36.8464 26.567 36.0037 25.47 34.826 24.7908ZM34.7331 30.6123C34.3559 31.2665 33.7463 31.7348 33.017 31.9305C32.2877 32.1265 31.5255 32.0266 30.8714 31.6494C30.2171 31.2721 29.7489 30.6626 29.553 29.9332C29.3571 29.2038 29.457 28.4417 29.8342 27.7875C30.2114 27.1332 30.8209 26.665 31.5504 26.4692C31.7945 26.4036 32.0422 26.3712 32.2883 26.3712C32.7776 26.3712 33.2607 26.4995 33.696 26.7505C34.3503 27.1278 34.8185 27.7373 35.0144 28.4668C35.2103 29.196 35.1104 29.9581 34.7331 30.6123Z" fill="black"/><path d="M48.0657 25.0001C48.0657 24.2209 48.2851 23.3317 48.5173 22.3903C48.9071 20.81 49.349 19.0188 48.7824 17.2734C48.1931 15.4586 46.7512 14.2528 45.479 13.189C44.7625 12.5898 44.0857 12.024 43.6617 11.4414C43.228 10.8453 42.8929 10.0175 42.5382 9.1411C41.9199 7.61359 41.2191 5.88227 39.697 4.77447C38.1885 3.67662 36.3323 3.54226 34.6945 3.42396C33.7437 3.35519 32.8457 3.29016 32.1296 3.05774C31.4651 2.84206 30.7304 2.38062 29.9525 1.89203C28.5404 1.00511 26.9399 0 24.9999 0C23.06 0 21.4595 1.00511 20.0475 1.89192C19.2697 2.38039 18.5349 2.84184 17.8705 3.05763C17.1543 3.29016 16.2563 3.35508 15.3054 3.42384C13.6678 3.54226 11.8115 3.67651 10.303 4.77436C8.78088 5.88216 8.08012 7.61359 7.46181 9.14099C7.10702 10.0174 6.77202 10.8452 6.33828 11.4413C5.91416 12.0239 5.23749 12.5898 4.52101 13.1889C3.24876 14.2527 1.80686 15.4585 1.21773 17.273C0.650878 19.0186 1.09287 20.8097 1.48272 22.3901C1.71503 23.3316 1.93432 24.2209 1.93432 24.9999C1.93432 25.779 1.71503 26.6683 1.48272 27.6096C1.09287 29.19 0.650991 30.9812 1.21773 32.7267C1.80686 34.5413 3.24887 35.7471 4.52112 36.8109C5.2376 37.4099 5.91439 37.9759 6.3384 38.5585C6.77213 39.1546 7.10713 39.9824 7.46192 40.8588C8.08023 42.3864 8.78099 44.1177 10.3031 45.2254C11.8116 46.3233 13.6678 46.4576 15.3056 46.5759C16.2564 46.6447 17.1544 46.7097 17.8705 46.9421C18.535 47.1579 19.2697 47.6193 20.0476 48.1079C21.4596 48.9947 23.0601 49.9998 25.0001 49.9998C26.94 49.9998 28.5404 48.9947 29.9524 48.108C30.7303 47.6195 31.465 47.1581 32.1296 46.9423C32.8458 46.7096 33.7438 46.6447 34.6948 46.5759C36.3324 46.4575 38.1886 46.3233 39.6971 45.2254C41.2192 44.1176 41.92 42.3862 42.5383 40.8588C42.893 39.9824 43.2281 39.1546 43.6619 38.5585C44.0859 37.9759 44.7627 37.4099 45.4792 36.8109C46.7513 35.7471 48.1934 34.5413 48.7825 32.7267C49.3493 30.9812 48.9073 29.19 48.5175 27.6096C48.2851 26.6684 48.0657 25.7792 48.0657 25.0001ZM45.2232 28.4225C45.5317 29.6731 45.823 30.8542 45.5552 31.679C45.2675 32.565 44.313 33.3633 43.3025 34.2081C42.4598 34.9127 41.5885 35.6414 40.9184 36.5622C40.2392 37.4952 39.8091 38.558 39.393 39.5859C38.9019 40.7993 38.438 41.9454 37.7004 42.4822C36.9762 43.0092 35.749 43.098 34.4498 43.1919C33.3387 43.2723 32.1897 43.3554 31.0816 43.7153C30.0169 44.061 29.0667 44.6577 28.1479 45.2347C27.0242 45.9403 25.9629 46.6069 25.0001 46.6069C24.0372 46.6069 22.9758 45.9403 21.8521 45.2347C20.9332 44.6575 19.9831 44.061 18.9184 43.7152C17.8102 43.3553 16.6614 43.2723 15.5503 43.1919C14.251 43.098 13.0239 43.0092 12.2996 42.4822C11.5621 41.9454 11.0982 40.7993 10.6071 39.5859C10.191 38.558 9.76088 37.4952 9.08172 36.5622C8.41172 35.6413 7.5403 34.9127 6.6976 34.2081C5.68706 33.363 4.7325 32.565 4.44489 31.6791C4.17708 30.8542 4.46842 29.6731 4.77695 28.4225C5.0476 27.3257 5.3274 26.1914 5.3274 25.0001C5.3274 23.8087 5.0476 22.6744 4.77695 21.5775C4.46842 20.3269 4.17708 19.1458 4.44489 18.321C4.7325 17.435 5.68706 16.6367 6.6976 15.7919C7.5403 15.0873 8.41161 14.3586 9.08172 13.4378C9.76088 12.5048 10.191 11.442 10.6071 10.4141C11.0982 9.20071 11.5621 8.05456 12.2997 7.5178C13.0239 6.99076 14.2511 6.90197 15.5504 6.8081C16.6615 6.72769 17.8104 6.64467 18.9186 6.28479C19.9832 5.93905 20.9334 5.34245 21.8522 4.76531C22.9757 4.05957 24.037 3.39297 24.9999 3.39297C25.9629 3.39297 27.0243 4.05957 28.1479 4.7652C29.0669 5.34234 30.0169 5.93894 31.0816 6.28468C32.1897 6.64456 33.3386 6.72757 34.4497 6.80799C35.749 6.90186 36.9761 6.99064 37.7004 7.51768C38.4379 8.05445 38.9019 9.20071 39.393 10.414C39.8091 11.4419 40.2392 12.5047 40.9183 13.4377C41.5884 14.3585 42.4597 15.0871 43.3024 15.7917C44.3129 16.6367 45.2675 17.4349 45.5552 18.3209C45.823 19.1457 45.5316 20.3269 45.223 21.5775C44.9524 22.6743 44.6726 23.8086 44.6726 24.9999C44.6726 26.1913 44.9525 27.3256 45.2232 28.4225Z" fill="black"/></svg>